<svg width="18" height="18" viewBox="0 0 18 18" fill="none" xmlns="http://www.w3.org/2000/svg">
<path d="M4.06419 5.5874H0.221191V17.128H4.06419V5.5874Z" fill="white"/>
<path d="M16.6764 6.64123C15.8692 5.76002 14.8015 5.31934 13.474 5.31934C12.9849 5.31934 12.5403 5.3795 12.1404 5.49991C11.7406 5.62024 11.4029 5.78906 11.1272 6.00647C10.8517 6.22388 10.6323 6.4257 10.4694 6.61195C10.3144 6.78885 10.1629 6.99492 10.0151 7.22803V5.587H6.18359L6.19534 6.14605C6.20321 6.51882 6.20709 7.66777 6.20709 9.59306C6.20709 11.5185 6.19934 14.03 6.18376 17.1277H10.0151V10.6876C10.0151 10.2918 10.0576 9.97742 10.1432 9.74431C10.3063 9.34817 10.5526 9.01651 10.8827 8.74877C11.2128 8.4807 11.6222 8.34679 12.1115 8.34679C12.779 8.34679 13.2702 8.57774 13.5847 9.03968C13.899 9.50157 14.0562 10.1402 14.0562 10.9554V17.1274H17.8876V10.5131C17.8873 8.81273 17.4839 7.52216 16.6764 6.64123Z" fill="white"/>
<path d="M2.16603 0.0322266C1.52172 0.0322266 0.999662 0.220632 0.599723 0.597075C0.199826 0.9736 0 1.44896 0 2.0236C0 2.5902 0.194075 3.06392 0.582266 3.44424C0.970334 3.8246 1.48281 4.01488 2.11941 4.01488H2.1427C2.79492 4.01488 3.32097 3.82476 3.72075 3.44424C4.12052 3.06392 4.31652 2.59036 4.30881 2.0236C4.30106 1.449 4.10294 0.9736 3.71488 0.597075C3.32685 0.220469 2.81038 0.0322266 2.16603 0.0322266Z" fill="white"/>
</svg>
