<svg width="169" height="20" viewBox="0 0 169 20" fill="none" xmlns="http://www.w3.org/2000/svg">
<path d="M45.6487 6.18106V3.94512C45.6487 3.328 46.1495 2.82715 46.7667 2.82715H47.8846V0.0322266H45.6487C43.7962 0.0322266 42.2948 1.53366 42.2948 3.38614V6.18106H40.0588V8.97599H42.2948V17.9198H45.6487V8.97599H47.8846L49.0026 6.18106H45.6487Z" fill="white"/>
<g clip-path="url(#clip0_202_114)">
<path d="M84.2721 2.80957H73.7489C71.6842 2.80957 70.0105 4.57628 70.0105 6.75563V12.3084C70.0105 14.4877 71.6842 16.2545 73.7489 16.2545H84.2721C86.3368 16.2545 88.0105 14.4877 88.0105 12.3084V6.75563C88.0105 4.57628 86.3368 2.80957 84.2721 2.80957ZM81.7439 9.80217L76.8218 12.2801C76.6907 12.3461 76.5392 12.2452 76.5392 12.0919V6.98107C76.5392 6.82553 76.6947 6.72472 76.8261 6.79503L81.7482 9.42786C81.8945 9.50613 81.892 9.72766 81.7439 9.80217Z" fill="white"/>
</g>
<path d="M4.06419 5.5874H0.221191V17.128H4.06419V5.5874Z" fill="white"/>
<path d="M16.6764 6.64123C15.8692 5.76002 14.8015 5.31934 13.474 5.31934C12.9849 5.31934 12.5403 5.3795 12.1404 5.49991C11.7406 5.62024 11.403 5.78906 11.1273 6.00647C10.8517 6.22388 10.6323 6.4257 10.4694 6.61195C10.3145 6.78885 10.163 6.99492 10.0152 7.22803V5.587H6.18362L6.19537 6.14605C6.20324 6.51882 6.20712 7.66777 6.20712 9.59306C6.20712 11.5185 6.19937 14.03 6.18379 17.1277H10.0152V10.6876C10.0152 10.2918 10.0576 9.97742 10.1432 9.74431C10.3064 9.34817 10.5526 9.01651 10.8827 8.74877C11.2129 8.4807 11.6223 8.34679 12.1115 8.34679C12.779 8.34679 13.2702 8.57774 13.5847 9.03968C13.8991 9.50157 14.0563 10.1402 14.0563 10.9554V17.1274H17.8876V10.5131C17.8874 8.81273 17.4839 7.52216 16.6764 6.64123Z" fill="white"/>
<path d="M2.16603 0.0322266C1.52172 0.0322266 0.999662 0.220632 0.599723 0.597075C0.199826 0.9736 0 1.44896 0 2.0236C0 2.5902 0.194075 3.06392 0.582266 3.44424C0.970334 3.8246 1.48281 4.01488 2.11941 4.01488H2.1427C2.79492 4.01488 3.32097 3.82476 3.72075 3.44424C4.12052 3.06392 4.31652 2.59036 4.30881 2.0236C4.30106 1.449 4.10294 0.9736 3.71488 0.597075C3.32685 0.220469 2.81038 0.0322266 2.16603 0.0322266Z" fill="white"/>
<path d="M121.327 0.0322266H114.619C111.532 0.0322266 109.029 2.53536 109.029 5.62208V12.3299C109.029 15.4166 111.532 17.9198 114.619 17.9198H121.327C124.413 17.9198 126.916 15.4166 126.916 12.3299V5.62208C126.916 2.53536 124.413 0.0322266 121.327 0.0322266ZM125.24 12.3299C125.24 14.4876 123.484 16.2428 121.327 16.2428H114.619C112.461 16.2428 110.706 14.4876 110.706 12.3299V5.62208C110.706 3.4644 112.461 1.70918 114.619 1.70918H121.327C123.484 1.70918 125.24 3.4644 125.24 5.62208V12.3299Z" fill="white"/>
<path d="M117.973 4.50391C115.503 4.50391 113.501 6.50619 113.501 8.97579C113.501 11.4454 115.503 13.4477 117.973 13.4477C120.442 13.4477 122.445 11.4454 122.445 8.97579C122.445 6.50619 120.442 4.50391 117.973 4.50391ZM117.973 11.7707C116.432 11.7707 115.178 10.5164 115.178 8.97579C115.178 7.43411 116.432 6.18086 117.973 6.18086C119.513 6.18086 120.768 7.43411 120.768 8.97579C120.768 10.5164 119.513 11.7707 117.973 11.7707Z" fill="white"/>
<path d="M122.78 4.76451C123.109 4.76451 123.376 4.49773 123.376 4.16863C123.376 3.83954 123.109 3.57275 122.78 3.57275C122.451 3.57275 122.184 3.83954 122.184 4.16863C122.184 4.49773 122.451 4.76451 122.78 4.76451Z" fill="white"/>
<path d="M165.589 15.9072H151.498C150.856 15.9049 150.242 15.649 149.788 15.1953C149.334 14.7416 149.078 14.1269 149.076 13.4853V4.67867C149.078 4.03707 149.334 3.42242 149.788 2.96874C150.242 2.51506 150.856 2.25916 151.498 2.25684H165.589C166.23 2.25916 166.845 2.51506 167.299 2.96874C167.752 3.42242 168.008 4.03707 168.011 4.67867V13.4853C168.008 14.1269 167.752 14.7416 167.299 15.1953C166.845 15.649 166.23 15.9049 165.589 15.9072ZM151.498 3.57784C151.206 3.57784 150.926 3.69382 150.72 3.90026C150.513 4.10671 150.397 4.38671 150.397 4.67867V13.4853C150.397 13.7773 150.513 14.0573 150.72 14.2637C150.926 14.4702 151.206 14.5862 151.498 14.5862H165.589C165.881 14.5862 166.161 14.4702 166.367 14.2637C166.574 14.0573 166.69 13.7773 166.69 13.4853V4.67867C166.69 4.38671 166.574 4.10671 166.367 3.90026C166.161 3.69382 165.881 3.57784 165.589 3.57784H151.498Z" fill="white"/>
<path d="M158.543 10.2711C158.032 10.2711 157.531 10.1343 157.09 9.87482L149.402 5.30416C149.258 5.21464 149.154 5.07401 149.11 4.91061C149.066 4.7472 149.085 4.57315 149.164 4.4235C149.252 4.27801 149.393 4.17263 149.558 4.12986C149.723 4.08708 149.897 4.11029 150.045 4.19452L157.742 8.75638C157.975 8.89875 158.244 8.97407 158.517 8.97407C158.79 8.97407 159.058 8.89875 159.292 8.75638L166.989 4.19452C167.137 4.11029 167.311 4.08708 167.476 4.12986C167.64 4.17263 167.782 4.27801 167.87 4.4235C167.949 4.57315 167.968 4.7472 167.924 4.91061C167.88 5.07401 167.775 5.21464 167.632 5.30416L159.996 9.87482C159.556 10.1343 159.054 10.2711 158.543 10.2711Z" fill="white"/>
<defs>
<clipPath id="clip0_202_114">
<rect width="18" height="19" fill="white" transform="translate(70.0105 0.0322266)"/>
</clipPath>
</defs>
</svg>
