<svg width="20" height="14" viewBox="0 0 20 14" fill="none" xmlns="http://www.w3.org/2000/svg">
<path d="M16.5887 13.9072H2.49801C1.85641 13.9049 1.24175 13.649 0.788074 13.1953C0.334394 12.7416 0.0784923 12.1269 0.0761719 11.4853V2.67867C0.0784923 2.03707 0.334394 1.42242 0.788074 0.968738C1.24175 0.515058 1.85641 0.259156 2.49801 0.256836H16.5887C17.2303 0.259156 17.8449 0.515058 18.2986 0.968738C18.7523 1.42242 19.0082 2.03707 19.0105 2.67867V11.4853C19.0082 12.1269 18.7523 12.7416 18.2986 13.1953C17.8449 13.649 17.2303 13.9049 16.5887 13.9072ZM2.49801 1.57784C2.20605 1.57784 1.92605 1.69382 1.7196 1.90026C1.51315 2.10671 1.39717 2.38671 1.39717 2.67867V11.4853C1.39717 11.7773 1.51315 12.0573 1.7196 12.2637C1.92605 12.4702 2.20605 12.5862 2.49801 12.5862H16.5887C16.8806 12.5862 17.1606 12.4702 17.3671 12.2637C17.5735 12.0573 17.6895 11.7773 17.6895 11.4853V2.67867C17.6895 2.38671 17.5735 2.10671 17.3671 1.90026C17.1606 1.69382 16.8806 1.57784 16.5887 1.57784H2.49801Z" fill="white"/>
<path d="M9.54329 8.27112C9.03222 8.27112 8.53049 8.13429 8.09019 7.87482L0.401962 3.30416C0.258319 3.21464 0.153929 3.07401 0.10981 2.91061C0.06569 2.7472 0.0851181 2.57315 0.164182 2.4235C0.252112 2.27801 0.393411 2.17263 0.557936 2.12986C0.722462 2.08708 0.897191 2.11029 1.04485 2.19452L8.74188 6.75638C8.97531 6.89875 9.24345 6.97407 9.51687 6.97407C9.79029 6.97407 10.0584 6.89875 10.2919 6.75638L17.9889 2.19452C18.1365 2.11029 18.3113 2.08708 18.4758 2.12986C18.6403 2.17263 18.7816 2.27801 18.8696 2.4235C18.9486 2.57315 18.968 2.7472 18.9239 2.91061C18.8798 3.07401 18.7754 3.21464 18.6318 3.30416L10.9964 7.87482C10.5561 8.13429 10.0543 8.27112 9.54329 8.27112Z" fill="white"/>
</svg>
