<svg width="18" height="18" viewBox="0 0 18 18" fill="none" xmlns="http://www.w3.org/2000/svg">
<path d="M12.3265 0.0322266H5.61866C2.53194 0.0322266 0.0288086 2.53536 0.0288086 5.62208V12.3299C0.0288086 15.4166 2.53194 17.9198 5.61866 17.9198H12.3265C15.4132 17.9198 17.9163 15.4166 17.9163 12.3299V5.62208C17.9163 2.53536 15.4132 0.0322266 12.3265 0.0322266ZM16.2394 12.3299C16.2394 14.4876 14.4842 16.2428 12.3265 16.2428H5.61866C3.46098 16.2428 1.70576 14.4876 1.70576 12.3299V5.62208C1.70576 3.4644 3.46098 1.70918 5.61866 1.70918H12.3265C14.4842 1.70918 16.2394 3.4644 16.2394 5.62208V12.3299Z" fill="white"/>
<path d="M8.97261 4.50391C6.50302 4.50391 4.50073 6.50619 4.50073 8.97579C4.50073 11.4454 6.50302 13.4477 8.97261 13.4477C11.4422 13.4477 13.4445 11.4454 13.4445 8.97579C13.4445 6.50619 11.4422 4.50391 8.97261 4.50391ZM8.97261 11.7707C7.43205 11.7707 6.17769 10.5164 6.17769 8.97579C6.17769 7.43411 7.43205 6.18086 8.97261 6.18086C10.5132 6.18086 11.7675 7.43411 11.7675 8.97579C11.7675 10.5164 10.5132 11.7707 8.97261 11.7707Z" fill="white"/>
<path d="M13.78 4.76451C14.1091 4.76451 14.3758 4.49773 14.3758 4.16863C14.3758 3.83954 14.1091 3.57275 13.78 3.57275C13.4509 3.57275 13.1841 3.83954 13.1841 4.16863C13.1841 4.49773 13.4509 4.76451 13.78 4.76451Z" fill="white"/>
</svg>
