<svg width="1601" height="800" viewBox="0 0 1601 800" fill="none" xmlns="http://www.w3.org/2000/svg">
<mask id="mask0_65_203" style="mask-type:luminance" maskUnits="userSpaceOnUse" x="0" y="0" width="1601" height="800">
<path d="M1600.85 0.0996094H0.845703V799.095H1600.85V0.0996094Z" fill="white"/>
</mask>
<g mask="url(#mask0_65_203)">
<path d="M1600.85 0H0.999573V799H1600.85V0Z" fill="#FFAA00"/>
<path d="M263.037 980.999C251.61 980.999 240.274 980.726 229.032 980.178C147.297 976.194 73.5385 957.917 9.88788 925.869C-61.285 890.092 -116.271 839.045 -153.649 774.315C-191.027 709.585 -207.669 636.399 -203.109 556.877C-199.027 485.711 -177.98 412.714 -140.557 339.895C-68.6298 199.937 58.2943 72.4531 216.827 -19.0984C375.361 -110.65 549.215 -156.847 706.351 -149.168C788.108 -145.184 861.844 -126.907 925.494 -94.8698C996.623 -59.0593 1051.65 -8.06783 1089.03 56.6952C1126.41 121.458 1143.05 194.611 1138.49 274.133C1134.41 345.288 1113.36 418.296 1075.94 491.116C1004.01 631.062 877.088 758.557 718.555 850.109C571.383 935.102 410.986 980.999 263.037 980.999ZM672.134 71.9426C624.061 71.9426 573.125 78.9561 520.369 92.8497C454.91 110.084 390.15 137.083 327.775 173.104C265.4 209.126 209.616 251.761 161.986 299.801C117.274 344.899 81.8818 392.528 56.7855 441.367C33.9524 485.756 20.6831 530.144 18.4198 569.584C16.3783 605.161 23.1461 636.699 38.5679 663.343C53.9896 689.988 77.8766 711.605 109.696 727.629C144.989 745.385 190.011 756.06 239.905 758.501C294.735 761.176 353.67 754.329 415.069 738.16C480.528 720.927 545.288 693.916 607.663 657.895C670.037 621.873 725.822 579.249 773.452 531.198C818.097 486.155 853.489 438.437 878.586 389.61C901.43 345.221 914.699 300.833 916.962 261.393C918.993 225.816 912.236 194.267 896.859 167.633C881.481 141 857.55 119.372 825.73 103.348C790.449 85.5922 745.426 74.9056 695.533 72.4753C687.811 72.1202 680.012 71.9426 672.134 71.9426Z" fill="url(#paint0_linear_65_203)"/>
</g>
<defs>
<linearGradient id="paint0_linear_65_203" x1="-218.246" y1="523.455" x2="1153.61" y2="307.694" gradientUnits="userSpaceOnUse">
<stop stop-color="#FFAA00"/>
<stop offset="1" stop-color="#F8DE22"/>
</linearGradient>
</defs>
</svg>
