<svg width="19" height="20" viewBox="0 0 19 20" fill="none" xmlns="http://www.w3.org/2000/svg">
<g clip-path="url(#clip0_202_90)">
<path d="M14.2721 2.80957H3.74887C1.68422 2.80957 0.010498 4.57628 0.010498 6.75563V12.3084C0.010498 14.4877 1.68422 16.2545 3.74887 16.2545H14.2721C16.3368 16.2545 18.0105 14.4877 18.0105 12.3084V6.75563C18.0105 4.57628 16.3368 2.80957 14.2721 2.80957ZM11.7439 9.80217L6.82182 12.2801C6.69067 12.3461 6.53917 12.2452 6.53917 12.0919V6.98107C6.53917 6.82553 6.69465 6.72472 6.82608 6.79503L11.7482 9.42786C11.8945 9.50613 11.892 9.72766 11.7439 9.80217Z" fill="white"/>
</g>
<defs>
<clipPath id="clip0_202_90">
<rect width="18" height="19" fill="white" transform="translate(0.010498 0.0322266)"/>
</clipPath>
</defs>
</svg>
